#!OML:ASF F:\VICON\USERDATA\INSTALL\rory3\rory3.ASF
:FULLY-SPECIFIED
:DEGREES
44
root 0.6731500336991928 17.6928788720607 23.09873883403712 -1.5954775973603412 2.7823779793701657 0.867002287445855
lfemur 13.074085581552769 -2.286270752278401 -25.752644562586063
ltibia 20.763857372819253
lfoot -4.234661718414099 -3.5579558361585097
ltoes -7.94419003892983
rfemur -27.776360903001915 2.4579014420304324 19.929850085060966
rtibia 28.338727057818247
rfoot -8.498887863495325 -12.982759381426826
rtoes -0.3428385750056502
lowerback 10.780460317542321 -1.2270955349099488 -4.3567350233296365
upperback 0.17105772680878772 -1.9342878209376309 1.4974877180363495
thorax -5.635052284248562 -0.5120228947307873 3.9992897141366743
lowerneck -16.730146002504668 -3.024190118219751 -2.215121798080811
upperneck 21.526958958134674 -4.602142512645213 1.6306896817766912
head 9.555091299369876 -2.1582209915156154 0.21370970953481355
lclavicle 3.007644531881168e-16 5.650158595135572e-17
lhumerus -23.83583802672969 -2.7955322215212237 81.82025984480153
lradius 29.013906128026452
lwrist 8.225353840703175
lhand -29.09002507382483 19.90749361846681
lfingers 7.125020000000001
lthumb -2.045263500912391 51.19668810823376
rclavicle 2.993985441899448e-16 5.552075363461891e-17
rhumerus -35.70846575871069 -24.138208972441223 -74.70284428984519
rradius 26.275831106618966
rwrist 4.217030616578742
rhand -18.315233885282893 23.107085897214834
rfingers 7.125020000000001
rthumb 7.719426994460952 -7.094116376819085
45
root 0.6145882419766251 17.69706843464345 24.47090926951906 -1.8538249712752009 2.660122991557177 0.16115848608180539
lfemur 13.864546404883246 -3.030250943094301 -24.932713632407847
ltibia 21.35361273431051
lfoot -2.2506536587125394 -5.262668613212956
ltoes -8.251962377419487
rfemur -28.434148617283448 0.9710678563828545 21.487036594959072
rtibia 31.206213562850543
rfoot -8.37119383786116 -12.03334568733324
rtoes -0.47884870249450806
lowerback 10.63801419740636 -1.257206152236361 -4.18998954312492
upperback 0.12701906472092295 -1.8884729185430407 1.629185798332119
thorax -5.597502476321593 -0.5186194717200581 4.1554014055739295
lowerneck -16.73595262767075 -3.065860103777453 -2.1207915871370773
upperneck 21.55449457563495 -4.514959364200229 1.6237986362975032
head 9.567238129837085 -2.1583054671266586 0.22596668101995177
lclavicle 3.0076445279017565e-16 5.650158566560205e-17
lhumerus -23.89897883305383 -2.716583353569478 81.84871711091057
lradius 28.81942211061032
lwrist 7.785640556090686
lhand -29.02915291043875 20.25035012552756
lfingers 7.125020000000001
lthumb -2.0787394583866736 51.2215156364625
rclavicle 2.993985443909067e-16 5.55207537789257e-17
rhumerus -36.73612472800864 -25.545872253314997 -73.52171946560668
rradius 25.48380820025176
rwrist 4.902007480092405
rhand -18.259289727020885 23.07785987150923
rfingers 7.125020000000001
rthumb 7.771537659967093 -7.126020282941492
46
root 0.5507832767221905 17.73344933128021 25.38770842307872 -2.238382448509948 2.429999932483761 -0.8877671341561819
lfemur 13.827097921638796 -4.101238333039749 -23.798677095116094
ltibia 23.239974496237643
lfoot -1.7706995716824911 -6.984888390146393
ltoes -8.226773443897319
rfemur -28.011829054349384 0.7644762109702952 23.02574826179062
rtibia 34.294421784325465
rfoot -7.611514827127362 -10.817523687264769
rtoes 0.25569936711114427
lowerback 10.48226328964985 -1.234885906305178 -3.553343968625601
upperback 0.08020776617517442 -1.7649481771522255 1.823915217205485
thorax -5.558246355755296 -0.46542697647006126 4.173991184250706
lowerneck -16.68946654821532 -3.09978529627295 -2.0140763419216308
upperneck 21.571494670359552 -4.455446558402334 1.5885157263219951
head 9.565925187102886 -2.14935251978447 0.22979731818974533
lclavicle 3.0076445277145e-16 5.650158565215554e-17
lhumerus -24.337340842071946 -2.4017789438052692 81.91480458669263
lradius 28.409295000852072
lwrist 7.413408003616418
lhand -29.225069165694844 19.766275272025226
lfingers 7.125020000000001
lthumb -2.239265266850727 50.90927481216851
rclavicle 2.9939854452051955e-16 5.552075387199814e-17
rhumerus -37.972756375725154 -27.287559073140176 -71.97044399922942
rradius 24.70972378405317
rwrist 5.728020943769577
rhand -18.198757879512502 23.04748977530322
rfingers 7.125020000000001
rthumb 7.875561701915027 -7.044504056114376
47
root 0.48508165389428626 17.793457997184703 26.153278791045135 -2.6890105683420935 2.1870052604226964 -2.1257875343005255
lfemur 12.292021202166627 -4.93833889666463 -22.312745718659052
ltibia 27.18959870337116
lfoot -0.7296876263714518 -7.222882125919557
ltoes -8.40778869152569
rfemur -26.54226528172456 0.9598664204943672 24.519671562020065
rtibia 36.8090680578427
rfoot -6.719353668997716 -9.581594490451188
rtoes 1.5257609938784285
lowerback 10.331088002007096 -1.1873426322752516 -2.4897907757432822
upperback -0.0005128938235066105 -1.640116267827876 2.0455933908551907
thorax -5.561186692816029 -0.41998207016331357 3.9137142390213295
lowerneck -16.67861693440601 -3.1482850806128457 -1.933957237392254
upperneck 21.5983129437059 -4.420063345415366 1.5700608459020897
head 9.578063160968702 -2.1333994151650284 0.2334986486613015
lclavicle 3.007644523292244e-16 5.650158533460206e-17
lhumerus -25.01567093009436 -1.855309982305561 82.08696557652046
lradius 27.849262950336378
lwrist 7.042983587420297
lhand -29.23593734677697 19.94183714208544
lfingers 7.125020000000001
lthumb -2.3538968951719754 50.77366546884925
rclavicle 2.9939854474694743e-16 5.552075403459154e-17
rhumerus -39.143629443443665 -29.052548986013477 -70.2293257038384
rradius 24.151960703733437
rwrist 6.298394024818785
rhand -18.085595627593474 23.198119239593314
rfingers 7.125020000000001
rthumb 7.927610147928465 -7.019330523004467
